<svg width="56" height="27" viewBox="0 0 56 27" fill="none" xmlns="http://www.w3.org/2000/svg">
<path d="M15.249 1.20729C17.227 1.20729 18.9985 1.78288 20.5625 2.93288C21.7271 3.78926 22.624 4.8113 23.2529 5.99928C23.5733 6.60445 23.0948 7.28058 22.4102 7.28249L9.14258 7.31374C8.29165 7.33677 7.57887 7.63623 7.00391 8.2112C6.42894 8.78617 6.12947 9.49893 6.10645 10.3499V16.4221C6.12947 17.2731 6.44011 17.998 7.03809 18.596C7.63594 19.1937 8.34903 19.4923 9.17676 19.4924H22.3945C23.0836 19.4924 23.5646 20.1755 23.2402 20.7835C22.5983 21.9863 21.6936 23.0167 20.5273 23.8743C18.9634 25.0241 17.2039 25.5877 15.249 25.5647L9.14258 25.8753C6.61273 25.8292 4.46234 24.9205 2.69141 23.1497C0.920447 21.3787 0.02304 19.2396 0 16.7327L0.0351562 10.0745C0.0351562 7.54448 0.920406 5.39333 2.69141 3.62233C4.46234 1.85148 6.61273 0.966118 9.14258 0.96608L15.249 1.20729ZM45.9541 1.20729C48.5071 1.23029 50.6694 2.1277 52.4404 3.8987C54.2113 5.66963 55.0966 7.82002 55.0967 10.3499V16.4221C55.0737 18.9751 54.1762 21.1375 52.4053 22.9085C50.6344 24.6792 48.4839 25.5647 45.9541 25.5647H39.6064C37.6514 25.5417 35.88 24.9661 34.293 23.8391C33.1035 22.9943 32.1981 21.9686 31.5771 20.762C31.2665 20.158 31.7475 19.4924 32.4268 19.4924H45.6787C46.5064 19.4923 47.2195 19.1937 47.8174 18.596C48.4154 17.998 48.7139 17.2843 48.7139 16.4563L48.749 10.3499C48.749 9.52193 48.4495 8.80916 47.8516 8.2112C47.2536 7.61323 46.5408 7.31377 45.7129 7.31374H32.4258C31.7369 7.31353 31.2569 6.6315 31.5811 6.0237C32.2229 4.82088 33.1268 3.79042 34.293 2.93288C35.88 1.80588 37.6514 1.23029 39.6064 1.20729H45.9541Z" fill="white"/>
<path d="M15.2492 13.4205C15.2492 12.5925 15.5482 11.8795 16.1462 11.2815C16.7442 10.6835 17.4572 10.3845 18.2852 10.3845L36.5357 10.35C37.3637 10.35 38.0767 10.649 38.6747 11.247C39.2727 11.845 39.5832 12.5695 39.6062 13.4205C39.6062 14.2485 39.3072 14.9615 38.7092 15.5595C38.1112 16.1575 37.3982 16.4565 36.5702 16.4565H18.2852C17.4572 16.4565 16.7442 16.1575 16.1462 15.5595C15.5482 14.9615 15.2492 14.2485 15.2492 13.4205Z" fill="white"/>
</svg>
