<svg width="96" height="32" viewBox="0 0 96 32" fill="none" xmlns="http://www.w3.org/2000/svg">
<path d="M0 11.532C0 10.0027 0.062 8.66967 0.186 7.533C0.330667 6.39633 0.578667 5.34233 0.93 4.371C1.28133 3.379 1.74633 2.573 2.325 1.953C2.90367 1.333 3.63733 0.857666 4.526 0.526999C5.43533 0.175666 6.49967 0 7.719 0C10.6743 0 13.3093 0.341 15.624 1.023V4.433C15.624 4.433 15.5723 4.433 15.469 4.433C15.3863 4.41233 15.2623 4.39167 15.097 4.371C14.9317 4.35033 14.7353 4.32967 14.508 4.309C14.2807 4.28833 14.0223 4.26767 13.733 4.247C13.4437 4.22633 13.144 4.20567 12.834 4.185C12.524 4.16433 12.1933 4.14367 11.842 4.123C11.5113 4.10233 11.1703 4.08167 10.819 4.061C10.4883 4.04033 10.137 4.03 9.765 4.03C9.393 4.00933 9.052 3.999 8.742 3.999C8.16333 3.999 7.67767 4.03 7.285 4.092C6.913 4.13333 6.541 4.247 6.169 4.433C5.81767 4.619 5.53867 4.88767 5.332 5.239C5.12533 5.56967 4.93933 6.014 4.774 6.572C4.60867 7.13 4.495 7.82233 4.433 8.649C4.371 9.455 4.34 10.4367 4.34 11.594C4.34 14.2807 4.63967 16.213 5.239 17.391C5.859 18.5483 7.02667 19.127 8.742 19.127C9.71333 19.127 10.7673 19.1063 11.904 19.065C13.0613 19.0237 13.9707 18.9823 14.632 18.941L15.624 18.879V22.258C13.5987 22.878 10.9637 23.1673 7.719 23.126C6.31367 23.1053 5.10467 22.8367 4.092 22.32C3.07933 21.7827 2.27333 21.0077 1.674 19.995C1.09533 18.9617 0.671667 17.763 0.403 16.399C0.134333 15.0143 0 13.392 0 11.532Z" fill="#161616"/>
<path d="M17.834 22.94V6.479H21.492L22.174 8.556C23.724 7.068 25.2946 6.324 26.886 6.324C27.7746 6.324 28.3843 6.386 28.715 6.51V10.695C28.1363 10.633 27.3406 10.602 26.328 10.602C25.3566 10.602 24.5403 10.7363 23.879 11.005C23.2383 11.253 22.67 11.7283 22.174 12.431V22.94H17.834Z" fill="#161616"/>
<path d="M30.5127 14.942C30.5127 13.2473 30.6367 11.8523 30.8847 10.757C31.1327 9.66167 31.5667 8.78333 32.1867 8.122C32.8067 7.46067 33.5714 6.99567 34.4807 6.727C35.4107 6.45833 36.5887 6.324 38.0147 6.324C40.8461 6.324 42.7991 6.944 43.8737 8.184C44.9691 9.424 45.5167 11.6767 45.5167 14.942C45.5167 18.0213 44.9794 20.15 43.9047 21.328C42.8507 22.506 40.8874 23.095 38.0147 23.095C36.8781 23.095 35.8861 23.002 35.0387 22.816C34.2121 22.6093 33.4991 22.3097 32.8997 21.917C32.3211 21.5243 31.8561 21.0077 31.5047 20.367C31.1534 19.7057 30.8951 18.941 30.7297 18.073C30.5851 17.1843 30.5127 16.1407 30.5127 14.942ZM34.8527 14.942C34.8527 15.996 34.9044 16.833 35.0077 17.453C35.1111 18.073 35.2971 18.5483 35.5657 18.879C35.8551 19.189 36.1754 19.3853 36.5267 19.468C36.8781 19.5507 37.3741 19.592 38.0147 19.592C38.5727 19.592 38.9964 19.5713 39.2857 19.53C39.5957 19.4887 39.8851 19.3853 40.1537 19.22C40.4431 19.0547 40.6497 18.7963 40.7737 18.445C40.9184 18.0937 41.0217 17.6493 41.0837 17.112C41.1457 16.554 41.1767 15.8307 41.1767 14.942C41.1767 13.9913 41.1457 13.2267 41.0837 12.648C41.0424 12.0487 40.9597 11.5527 40.8357 11.16C40.7117 10.7467 40.5154 10.4573 40.2467 10.292C39.9781 10.106 39.6784 9.982 39.3477 9.92C39.0171 9.83733 38.5727 9.796 38.0147 9.796C37.5601 9.796 37.1881 9.81667 36.8987 9.858C36.6094 9.89933 36.3304 9.99233 36.0617 10.137C35.7931 10.261 35.5864 10.4367 35.4417 10.664C35.3177 10.8707 35.2041 11.1703 35.1007 11.563C34.9974 11.9557 34.9251 12.4207 34.8837 12.958C34.8631 13.4953 34.8527 14.1567 34.8527 14.942Z" fill="#161616"/>
<path d="M47.6424 12.183V10.757C47.6424 7.80167 49.0684 6.324 51.9204 6.324C56.8184 6.324 59.7531 6.603 60.7244 7.161V9.889H53.2534C52.9847 9.889 52.7574 9.90967 52.5714 9.951C52.4061 9.99233 52.2821 10.0647 52.1994 10.168C52.1167 10.2713 52.0547 10.385 52.0134 10.509C51.9927 10.633 51.9824 10.8087 51.9824 11.036V11.78C51.9824 12.2553 52.0857 12.555 52.2924 12.679C52.4991 12.7823 52.8194 12.834 53.2534 12.834H57.1594C57.9241 12.834 58.5854 12.9477 59.1434 13.175C59.7221 13.3817 60.1767 13.6813 60.5074 14.074C60.8587 14.4667 61.1171 14.9213 61.2824 15.438C61.4477 15.934 61.5304 16.4817 61.5304 17.081V18.786C61.5304 21.266 60.4867 22.6817 58.3994 23.033C58.1101 23.0743 57.8104 23.095 57.5004 23.095C52.2924 23.095 49.2337 22.7953 48.3244 22.196V19.499H56.1054C56.8287 19.499 57.1904 19.1477 57.1904 18.445V17.67C57.1904 17.422 57.1594 17.2257 57.0974 17.081C57.0561 16.9363 56.9527 16.8227 56.7874 16.74C56.6221 16.6573 56.3947 16.616 56.1054 16.616H52.2614C50.7527 16.616 49.6057 16.2647 48.8204 15.562C48.0351 14.8593 47.6424 13.733 47.6424 12.183Z" fill="#161616"/>
<path d="M63.3846 12.183V10.757C63.3846 7.80167 64.8106 6.324 67.6626 6.324C72.5606 6.324 75.4953 6.603 76.4666 7.161V9.889H68.9956C68.7269 9.889 68.4996 9.90967 68.3136 9.951C68.1483 9.99233 68.0243 10.0647 67.9416 10.168C67.8589 10.2713 67.7969 10.385 67.7556 10.509C67.7349 10.633 67.7246 10.8087 67.7246 11.036V11.78C67.7246 12.2553 67.8279 12.555 68.0346 12.679C68.2413 12.7823 68.5616 12.834 68.9956 12.834H72.9016C73.6663 12.834 74.3276 12.9477 74.8856 13.175C75.4643 13.3817 75.9189 13.6813 76.2496 14.074C76.6009 14.4667 76.8593 14.9213 77.0246 15.438C77.1899 15.934 77.2726 16.4817 77.2726 17.081V18.786C77.2726 21.266 76.2289 22.6817 74.1416 23.033C73.8523 23.0743 73.5526 23.095 73.2426 23.095C68.0346 23.095 64.9759 22.7953 64.0666 22.196V19.499H71.8476C72.5709 19.499 72.9326 19.1477 72.9326 18.445V17.67C72.9326 17.422 72.9016 17.2257 72.8396 17.081C72.7983 16.9363 72.6949 16.8227 72.5296 16.74C72.3643 16.6573 72.1369 16.616 71.8476 16.616H68.0036C66.4949 16.616 65.3479 16.2647 64.5626 15.562C63.7773 14.8593 63.3846 13.733 63.3846 12.183Z" fill="#161616"/>
<path d="M78.6928 6.479H83.2498L86.1018 18.011C86.1431 18.1763 86.1948 18.3313 86.2568 18.476C86.3394 18.6207 86.4324 18.7343 86.5358 18.817C86.6391 18.8997 86.7321 18.972 86.8148 19.034C86.8974 19.0753 86.9904 19.1167 87.0938 19.158C87.2178 19.1787 87.3108 19.189 87.3728 19.189C87.4348 19.189 87.5071 19.1993 87.5898 19.22C87.6931 19.22 87.7448 19.22 87.7448 19.22L91.0308 6.479H95.5568L89.8528 28.148L87.5898 31.31H84.4898L86.8148 22.94C84.2934 22.94 82.6608 21.545 81.9168 18.755L78.6928 6.479Z" fill="#161616"/>
</svg>
