<svg width="158" height="33" viewBox="0 0 158 33" fill="none" xmlns="http://www.w3.org/2000/svg">
<path d="M61.9277 12.978C61.9277 11.4487 61.9897 10.1157 62.1137 8.979C62.2584 7.84233 62.5064 6.78833 62.8577 5.817C63.2091 4.825 63.6741 4.019 64.2527 3.399C64.8314 2.779 65.5651 2.30367 66.4537 1.973C67.3631 1.62167 68.4274 1.446 69.6467 1.446C72.6021 1.446 75.2371 1.787 77.5517 2.469V5.879C77.5517 5.879 77.5001 5.879 77.3967 5.879C77.3141 5.85833 77.1901 5.83766 77.0247 5.817C76.8594 5.79633 76.6631 5.77567 76.4357 5.755C76.2084 5.73433 75.9501 5.71366 75.6607 5.693C75.3714 5.67233 75.0717 5.65167 74.7617 5.631C74.4517 5.61033 74.1211 5.58967 73.7697 5.569C73.4391 5.54833 73.0981 5.52766 72.7467 5.507C72.4161 5.48633 72.0647 5.476 71.6927 5.476C71.3207 5.45533 70.9797 5.445 70.6697 5.445C70.0911 5.445 69.6054 5.476 69.2127 5.538C68.8407 5.57933 68.4687 5.693 68.0967 5.879C67.7454 6.065 67.4664 6.33367 67.2597 6.685C67.0531 7.01567 66.8671 7.46 66.7017 8.018C66.5364 8.576 66.4227 9.26833 66.3607 10.095C66.2987 10.901 66.2677 11.8827 66.2677 13.04C66.2677 15.7267 66.5674 17.659 67.1667 18.837C67.7867 19.9943 68.9544 20.573 70.6697 20.573C71.6411 20.573 72.6951 20.5523 73.8317 20.511C74.9891 20.4697 75.8984 20.4283 76.5597 20.387L77.5517 20.325V23.704C75.5264 24.324 72.8914 24.6133 69.6467 24.572C68.2414 24.5513 67.0324 24.2827 66.0197 23.766C65.0071 23.2287 64.2011 22.4537 63.6017 21.441C63.0231 20.4077 62.5994 19.209 62.3307 17.845C62.0621 16.4603 61.9277 14.838 61.9277 12.978Z" fill="white"/>
<path d="M79.7617 24.386V7.925H83.4197L84.1017 10.002C85.6517 8.514 87.2224 7.77 88.8137 7.77C89.7024 7.77 90.312 7.832 90.6427 7.956V12.141C90.064 12.079 89.2684 12.048 88.2557 12.048C87.2844 12.048 86.468 12.1823 85.8067 12.451C85.166 12.699 84.5977 13.1743 84.1017 13.877V24.386H79.7617Z" fill="white"/>
<path d="M92.4405 16.388C92.4405 14.6933 92.5645 13.2983 92.8125 12.203C93.0605 11.1077 93.4945 10.2293 94.1145 9.568C94.7345 8.90666 95.4991 8.44167 96.4085 8.173C97.3385 7.90433 98.5165 7.77 99.9425 7.77C102.774 7.77 104.727 8.39 105.801 9.63C106.897 10.87 107.444 13.1227 107.444 16.388C107.444 19.4673 106.907 21.596 105.832 22.774C104.778 23.952 102.815 24.541 99.9425 24.541C98.8058 24.541 97.8138 24.448 96.9665 24.262C96.1398 24.0553 95.4268 23.7557 94.8275 23.363C94.2488 22.9703 93.7838 22.4537 93.4325 21.813C93.0811 21.1517 92.8228 20.387 92.6575 19.519C92.5128 18.6303 92.4405 17.5867 92.4405 16.388ZM96.7805 16.388C96.7805 17.442 96.8321 18.279 96.9355 18.899C97.0388 19.519 97.2248 19.9943 97.4935 20.325C97.7828 20.635 98.1031 20.8313 98.4545 20.914C98.8058 20.9967 99.3018 21.038 99.9425 21.038C100.5 21.038 100.924 21.0173 101.213 20.976C101.523 20.9347 101.813 20.8313 102.081 20.666C102.371 20.5007 102.577 20.2423 102.701 19.891C102.846 19.5397 102.949 19.0953 103.011 18.558C103.073 18 103.104 17.2767 103.104 16.388C103.104 15.4373 103.073 14.6727 103.011 14.094C102.97 13.4947 102.887 12.9987 102.763 12.606C102.639 12.1927 102.443 11.9033 102.174 11.738C101.906 11.552 101.606 11.428 101.275 11.366C100.945 11.2833 100.5 11.242 99.9425 11.242C99.4878 11.242 99.1158 11.2627 98.8265 11.304C98.5371 11.3453 98.2581 11.4383 97.9895 11.583C97.7208 11.707 97.5141 11.8827 97.3695 12.11C97.2455 12.3167 97.1318 12.6163 97.0285 13.009C96.9251 13.4017 96.8528 13.8667 96.8115 14.404C96.7908 14.9413 96.7805 15.6027 96.7805 16.388Z" fill="white"/>
<path d="M109.57 13.629V12.203C109.57 9.24767 110.996 7.77 113.848 7.77C118.746 7.77 121.681 8.049 122.652 8.607V11.335H115.181C114.912 11.335 114.685 11.3557 114.499 11.397C114.334 11.4383 114.21 11.5107 114.127 11.614C114.044 11.7173 113.982 11.831 113.941 11.955C113.92 12.079 113.91 12.2547 113.91 12.482V13.226C113.91 13.7013 114.013 14.001 114.22 14.125C114.427 14.2283 114.747 14.28 115.181 14.28H119.087C119.852 14.28 120.513 14.3937 121.071 14.621C121.65 14.8277 122.104 15.1273 122.435 15.52C122.786 15.9127 123.045 16.3673 123.21 16.884C123.375 17.38 123.458 17.9277 123.458 18.527V20.232C123.458 22.712 122.414 24.1277 120.327 24.479C120.038 24.5203 119.738 24.541 119.428 24.541C114.22 24.541 111.161 24.2413 110.252 23.642V20.945H118.033C118.756 20.945 119.118 20.5937 119.118 19.891V19.116C119.118 18.868 119.087 18.6717 119.025 18.527C118.984 18.3823 118.88 18.2687 118.715 18.186C118.55 18.1033 118.322 18.062 118.033 18.062H114.189C112.68 18.062 111.533 17.7107 110.748 17.008C109.963 16.3053 109.57 15.179 109.57 13.629Z" fill="white"/>
<path d="M125.312 13.629V12.203C125.312 9.24767 126.738 7.77 129.59 7.77C134.488 7.77 137.423 8.049 138.394 8.607V11.335H130.923C130.655 11.335 130.427 11.3557 130.241 11.397C130.076 11.4383 129.952 11.5107 129.869 11.614C129.787 11.7173 129.725 11.831 129.683 11.955C129.663 12.079 129.652 12.2547 129.652 12.482V13.226C129.652 13.7013 129.756 14.001 129.962 14.125C130.169 14.2283 130.489 14.28 130.923 14.28H134.829C135.594 14.28 136.255 14.3937 136.813 14.621C137.392 14.8277 137.847 15.1273 138.177 15.52C138.529 15.9127 138.787 16.3673 138.952 16.884C139.118 17.38 139.2 17.9277 139.2 18.527V20.232C139.2 22.712 138.157 24.1277 136.069 24.479C135.78 24.5203 135.48 24.541 135.17 24.541C129.962 24.541 126.904 24.2413 125.994 23.642V20.945H133.775C134.499 20.945 134.86 20.5937 134.86 19.891V19.116C134.86 18.868 134.829 18.6717 134.767 18.527C134.726 18.3823 134.623 18.2687 134.457 18.186C134.292 18.1033 134.065 18.062 133.775 18.062H129.931C128.423 18.062 127.276 17.7107 126.49 17.008C125.705 16.3053 125.312 15.179 125.312 13.629Z" fill="white"/>
<path d="M140.621 7.925H145.178L148.03 19.457C148.071 19.6223 148.123 19.7773 148.185 19.922C148.267 20.0667 148.36 20.1803 148.464 20.263C148.567 20.3457 148.66 20.418 148.743 20.48C148.825 20.5213 148.918 20.5627 149.022 20.604C149.146 20.6247 149.239 20.635 149.301 20.635C149.363 20.635 149.435 20.6453 149.518 20.666C149.621 20.666 149.673 20.666 149.673 20.666L152.959 7.925H157.485L151.781 29.594L149.518 32.756H146.418L148.743 24.386C146.221 24.386 144.589 22.991 143.845 20.201L140.621 7.925Z" fill="white"/>
<path d="M15.249 1.20729C17.227 1.20729 18.9985 1.78288 20.5625 2.93288C21.7271 3.78926 22.624 4.8113 23.2529 5.99928C23.5733 6.60445 23.0948 7.28058 22.4102 7.28249L9.14258 7.31374C8.29165 7.33677 7.57887 7.63623 7.00391 8.2112C6.42894 8.78617 6.12947 9.49893 6.10645 10.3499V16.4221C6.12947 17.2731 6.44011 17.998 7.03809 18.596C7.63594 19.1937 8.34903 19.4923 9.17676 19.4924H22.3945C23.0836 19.4924 23.5646 20.1755 23.2402 20.7835C22.5983 21.9863 21.6936 23.0167 20.5273 23.8743C18.9634 25.0241 17.2039 25.5877 15.249 25.5647L9.14258 25.8753C6.61273 25.8292 4.46234 24.9205 2.69141 23.1497C0.920447 21.3787 0.02304 19.2396 0 16.7327L0.0351562 10.0745C0.0351562 7.54448 0.920406 5.39333 2.69141 3.62233C4.46234 1.85148 6.61273 0.966118 9.14258 0.96608L15.249 1.20729ZM45.9541 1.20729C48.5071 1.23029 50.6694 2.1277 52.4404 3.8987C54.2113 5.66963 55.0966 7.82002 55.0967 10.3499V16.4221C55.0737 18.9751 54.1762 21.1375 52.4053 22.9085C50.6344 24.6792 48.4839 25.5647 45.9541 25.5647H39.6064C37.6514 25.5417 35.88 24.9661 34.293 23.8391C33.1035 22.9943 32.1981 21.9686 31.5771 20.762C31.2665 20.158 31.7475 19.4924 32.4268 19.4924H45.6787C46.5064 19.4923 47.2195 19.1937 47.8174 18.596C48.4154 17.998 48.7139 17.2843 48.7139 16.4563L48.749 10.3499C48.749 9.52193 48.4495 8.80916 47.8516 8.2112C47.2536 7.61323 46.5408 7.31377 45.7129 7.31374H32.4258C31.7369 7.31353 31.2569 6.6315 31.5811 6.0237C32.2229 4.82088 33.1268 3.79042 34.293 2.93288C35.88 1.80588 37.6514 1.23029 39.6064 1.20729H45.9541Z" fill="white"/>
<path d="M15.2492 13.4205C15.2492 12.5925 15.5482 11.8795 16.1462 11.2815C16.7442 10.6835 17.4572 10.3845 18.2852 10.3845L36.5357 10.35C37.3637 10.35 38.0767 10.649 38.6747 11.247C39.2727 11.845 39.5832 12.5695 39.6062 13.4205C39.6062 14.2485 39.3072 14.9615 38.7092 15.5595C38.1112 16.1575 37.3982 16.4565 36.5702 16.4565H18.2852C17.4572 16.4565 16.7442 16.1575 16.1462 15.5595C15.5482 14.9615 15.2492 14.2485 15.2492 13.4205Z" fill="white"/>
</svg>
