<svg width="158" height="36" viewBox="0 0 158 36" fill="none" xmlns="http://www.w3.org/2000/svg">
<path d="M61.9277 12.978C61.9277 11.4487 61.9897 10.1157 62.1137 8.979C62.2584 7.84233 62.5064 6.78833 62.8577 5.817C63.2091 4.825 63.6741 4.019 64.2527 3.399C64.8314 2.779 65.5651 2.30367 66.4537 1.973C67.3631 1.62167 68.4274 1.446 69.6468 1.446C72.6021 1.446 75.2371 1.787 77.5518 2.469V5.879C77.5518 5.879 77.5001 5.879 77.3968 5.879C77.3141 5.85833 77.1901 5.83766 77.0247 5.817C76.8594 5.79633 76.6631 5.77567 76.4358 5.755C76.2084 5.73433 75.9501 5.71366 75.6608 5.693C75.3714 5.67233 75.0718 5.65167 74.7618 5.631C74.4518 5.61033 74.1211 5.58967 73.7697 5.569C73.4391 5.54833 73.0981 5.52766 72.7467 5.507C72.4161 5.48633 72.0648 5.476 71.6927 5.476C71.3208 5.45533 70.9798 5.445 70.6698 5.445C70.0911 5.445 69.6054 5.476 69.2128 5.538C68.8408 5.57933 68.4687 5.693 68.0967 5.879C67.7454 6.065 67.4664 6.33367 67.2597 6.685C67.0531 7.01567 66.8671 7.46 66.7017 8.018C66.5364 8.576 66.4228 9.26833 66.3608 10.095C66.2988 10.901 66.2677 11.8827 66.2677 13.04C66.2677 15.7267 66.5674 17.659 67.1667 18.837C67.7867 19.9943 68.9544 20.573 70.6698 20.573C71.6411 20.573 72.6951 20.5523 73.8317 20.511C74.9891 20.4697 75.8984 20.4283 76.5597 20.387L77.5518 20.325V23.704C75.5264 24.324 72.8914 24.6133 69.6468 24.572C68.2414 24.5513 67.0324 24.2827 66.0197 23.766C65.0071 23.2287 64.2011 22.4537 63.6017 21.441C63.0231 20.4077 62.5994 19.209 62.3307 17.845C62.0621 16.4603 61.9277 14.838 61.9277 12.978Z" fill="#161616"/>
<path d="M79.7617 24.386V7.925H83.4197L84.1017 10.002C85.6517 8.514 87.2224 7.77 88.8137 7.77C89.7024 7.77 90.312 7.832 90.6427 7.956V12.141C90.064 12.079 89.2684 12.048 88.2557 12.048C87.2844 12.048 86.468 12.1823 85.8067 12.451C85.166 12.699 84.5977 13.1743 84.1017 13.877V24.386H79.7617Z" fill="#161616"/>
<path d="M92.4405 16.388C92.4405 14.6933 92.5645 13.2983 92.8125 12.203C93.0605 11.1077 93.4945 10.2293 94.1145 9.568C94.7345 8.90666 95.4991 8.44167 96.4085 8.173C97.3385 7.90433 98.5165 7.77 99.9425 7.77C102.774 7.77 104.727 8.39 105.801 9.63C106.897 10.87 107.444 13.1227 107.444 16.388C107.444 19.4673 106.907 21.596 105.832 22.774C104.778 23.952 102.815 24.541 99.9425 24.541C98.8058 24.541 97.8138 24.448 96.9665 24.262C96.1398 24.0553 95.4268 23.7557 94.8275 23.363C94.2488 22.9703 93.7838 22.4537 93.4325 21.813C93.0811 21.1517 92.8228 20.387 92.6575 19.519C92.5128 18.6303 92.4405 17.5867 92.4405 16.388ZM96.7805 16.388C96.7805 17.442 96.8321 18.279 96.9355 18.899C97.0388 19.519 97.2248 19.9943 97.4935 20.325C97.7828 20.635 98.1031 20.8313 98.4545 20.914C98.8058 20.9967 99.3018 21.038 99.9425 21.038C100.5 21.038 100.924 21.0173 101.213 20.976C101.523 20.9347 101.813 20.8313 102.081 20.666C102.371 20.5007 102.577 20.2423 102.701 19.891C102.846 19.5397 102.949 19.0953 103.011 18.558C103.073 18 103.104 17.2767 103.104 16.388C103.104 15.4373 103.073 14.6727 103.011 14.094C102.97 13.4947 102.887 12.9987 102.763 12.606C102.639 12.1927 102.443 11.9033 102.174 11.738C101.906 11.552 101.606 11.428 101.275 11.366C100.945 11.2833 100.5 11.242 99.9425 11.242C99.4878 11.242 99.1158 11.2627 98.8265 11.304C98.5371 11.3453 98.2581 11.4383 97.9895 11.583C97.7208 11.707 97.5141 11.8827 97.3695 12.11C97.2455 12.3167 97.1318 12.6163 97.0285 13.009C96.9251 13.4017 96.8528 13.8667 96.8115 14.404C96.7908 14.9413 96.7805 15.6027 96.7805 16.388Z" fill="#161616"/>
<path d="M109.57 13.629V12.203C109.57 9.24767 110.996 7.77 113.848 7.77C118.746 7.77 121.681 8.049 122.652 8.607V11.335H115.181C114.912 11.335 114.685 11.3557 114.499 11.397C114.334 11.4383 114.21 11.5107 114.127 11.614C114.044 11.7173 113.982 11.831 113.941 11.955C113.92 12.079 113.91 12.2547 113.91 12.482V13.226C113.91 13.7013 114.013 14.001 114.22 14.125C114.427 14.2283 114.747 14.28 115.181 14.28H119.087C119.852 14.28 120.513 14.3937 121.071 14.621C121.65 14.8277 122.104 15.1273 122.435 15.52C122.786 15.9127 123.045 16.3673 123.21 16.884C123.375 17.38 123.458 17.9277 123.458 18.527V20.232C123.458 22.712 122.414 24.1277 120.327 24.479C120.038 24.5203 119.738 24.541 119.428 24.541C114.22 24.541 111.161 24.2413 110.252 23.642V20.945H118.033C118.756 20.945 119.118 20.5937 119.118 19.891V19.116C119.118 18.868 119.087 18.6717 119.025 18.527C118.984 18.3823 118.88 18.2687 118.715 18.186C118.55 18.1033 118.322 18.062 118.033 18.062H114.189C112.68 18.062 111.533 17.7107 110.748 17.008C109.963 16.3053 109.57 15.179 109.57 13.629Z" fill="#161616"/>
<path d="M125.312 13.629V12.203C125.312 9.24767 126.738 7.77 129.59 7.77C134.488 7.77 137.423 8.049 138.394 8.607V11.335H130.923C130.655 11.335 130.427 11.3557 130.241 11.397C130.076 11.4383 129.952 11.5107 129.869 11.614C129.787 11.7173 129.725 11.831 129.683 11.955C129.663 12.079 129.652 12.2547 129.652 12.482V13.226C129.652 13.7013 129.756 14.001 129.962 14.125C130.169 14.2283 130.489 14.28 130.923 14.28H134.829C135.594 14.28 136.255 14.3937 136.813 14.621C137.392 14.8277 137.847 15.1273 138.177 15.52C138.529 15.9127 138.787 16.3673 138.952 16.884C139.118 17.38 139.2 17.9277 139.2 18.527V20.232C139.2 22.712 138.157 24.1277 136.069 24.479C135.78 24.5203 135.48 24.541 135.17 24.541C129.962 24.541 126.904 24.2413 125.994 23.642V20.945H133.775C134.499 20.945 134.86 20.5937 134.86 19.891V19.116C134.86 18.868 134.829 18.6717 134.767 18.527C134.726 18.3823 134.623 18.2687 134.457 18.186C134.292 18.1033 134.065 18.062 133.775 18.062H129.931C128.423 18.062 127.276 17.7107 126.49 17.008C125.705 16.3053 125.312 15.179 125.312 13.629Z" fill="#161616"/>
<path d="M140.621 7.925H145.178L148.03 19.457C148.071 19.6223 148.123 19.7773 148.185 19.922C148.267 20.0667 148.36 20.1803 148.464 20.263C148.567 20.3457 148.66 20.418 148.743 20.48C148.825 20.5213 148.918 20.5627 149.022 20.604C149.146 20.6247 149.239 20.635 149.301 20.635C149.363 20.635 149.435 20.6453 149.518 20.666C149.621 20.666 149.673 20.666 149.673 20.666L152.959 7.925H157.485L151.781 29.594L149.518 32.756H146.418L148.743 24.386C146.221 24.386 144.589 22.991 143.845 20.201L140.621 7.925Z" fill="#161616"/>
<path d="M15.249 1.20729C17.227 1.20729 18.9985 1.78288 20.5625 2.93288C21.7271 3.78926 22.624 4.8113 23.2529 5.99928C23.5733 6.60445 23.0948 7.28058 22.4102 7.28249L9.14258 7.31374C8.29165 7.33677 7.57887 7.63623 7.00391 8.2112C6.42894 8.78617 6.12947 9.49893 6.10645 10.3499V16.4221C6.12947 17.2731 6.44011 17.998 7.03809 18.596C7.63594 19.1937 8.34903 19.4923 9.17676 19.4924H22.3945C23.0836 19.4924 23.5646 20.1755 23.2402 20.7835C22.5983 21.9863 21.6936 23.0167 20.5273 23.8743C18.9634 25.0241 17.2039 25.5877 15.249 25.5647L9.14258 25.8753C6.61273 25.8292 4.46234 24.9205 2.69141 23.1497C0.920447 21.3787 0.02304 19.2396 0 16.7327L0.0351562 10.0745C0.0351562 7.54448 0.920406 5.39333 2.69141 3.62233C4.46234 1.85148 6.61273 0.966118 9.14258 0.96608L15.249 1.20729ZM45.9541 1.20729C48.5071 1.23029 50.6694 2.1277 52.4404 3.8987C54.2113 5.66963 55.0966 7.82002 55.0967 10.3499V16.4221C55.0737 18.9751 54.1762 21.1375 52.4053 22.9085C50.6344 24.6792 48.4839 25.5647 45.9541 25.5647H39.6064C37.6514 25.5417 35.88 24.9661 34.293 23.8391C33.1035 22.9943 32.1981 21.9686 31.5771 20.762C31.2665 20.158 31.7475 19.4924 32.4268 19.4924H45.6787C46.5064 19.4923 47.2195 19.1937 47.8174 18.596C48.4154 17.998 48.7139 17.2843 48.7139 16.4563L48.749 10.3499C48.749 9.52193 48.4495 8.80916 47.8516 8.2112C47.2536 7.61323 46.5408 7.31377 45.7129 7.31374H32.4258C31.7369 7.31353 31.2569 6.6315 31.5811 6.0237C32.2229 4.82088 33.1268 3.79042 34.293 2.93288C35.88 1.80588 37.6514 1.23029 39.6064 1.20729H45.9541Z" fill="#028CFD"/>
<path d="M15.2492 13.4205C15.2492 12.5925 15.5482 11.8795 16.1462 11.2815C16.7442 10.6835 17.4572 10.3845 18.2852 10.3845L36.5357 10.35C37.3637 10.35 38.0767 10.649 38.6747 11.247C39.2727 11.845 39.5832 12.5695 39.6062 13.4205C39.6062 14.2485 39.3072 14.9615 38.7092 15.5595C38.1112 16.1575 37.3982 16.4565 36.5702 16.4565H18.2852C17.4572 16.4565 16.7442 16.1575 16.1462 15.5595C15.5482 14.9615 15.2492 14.2485 15.2492 13.4205Z" fill="#161616"/>
<path d="M3.29774 35.434C2.74574 35.434 2.31174 35.276 1.99574 34.96C1.67974 34.644 1.52174 34.182 1.52174 33.574V31.186H2.12174V33.55C2.12174 34.018 2.22374 34.36 2.42774 34.576C2.63574 34.792 2.92774 34.9 3.30374 34.9C3.68374 34.9 3.97574 34.792 4.17974 34.576C4.38774 34.36 4.49174 34.018 4.49174 33.55V31.186H5.07374V33.574C5.07374 34.182 4.91574 34.644 4.59974 34.96C4.28774 35.276 3.85374 35.434 3.29774 35.434Z" fill="#161616"/>
<path d="M8.70383 35.386V31.186H9.30383V35.386H8.70383Z" fill="#161616"/>
<path d="M19.9846 31.186H20.5846V35.386H19.9846V31.186ZM17.5726 35.386H16.9726V31.186H17.5726V35.386ZM20.0386 33.514H17.5126V32.992H20.0386V33.514Z" fill="#161616"/>
<path d="M25.0757 35.386V31.708H23.6357V31.186H27.1097V31.708H25.6697V35.386H25.0757Z" fill="#161616"/>
<path d="M30.1632 35.386V31.186H30.6552L32.5392 34.36H32.2752L34.1352 31.186H34.6272L34.6332 35.386H34.0572L34.0512 32.092H34.1892L32.5332 34.876H32.2572L30.5892 32.092H30.7392V35.386H30.1632Z" fill="#161616"/>
<path d="M38.2937 35.386V31.186H38.8937V34.864H41.1677V35.386H38.2937Z" fill="#161616"/>
<path d="M43.9154 33.988V33.49H45.5294V33.988H43.9154Z" fill="#161616"/>
<path d="M48.9003 35.386V31.186H49.5003V34.864H51.7743V35.386H48.9003Z" fill="#161616"/>
<path d="M55.4088 32.998H57.5688V33.508H55.4088V32.998ZM55.4628 34.864H57.9108V35.386H54.8628V31.186H57.8268V31.708H55.4628V34.864Z" fill="#161616"/>
<path d="M62.5063 35.434C62.1863 35.434 61.8803 35.386 61.5883 35.29C61.2963 35.19 61.0663 35.062 60.8983 34.906L61.1203 34.438C61.2803 34.578 61.4843 34.694 61.7323 34.786C61.9803 34.878 62.2383 34.924 62.5063 34.924C62.7503 34.924 62.9483 34.896 63.1003 34.84C63.2523 34.784 63.3643 34.708 63.4363 34.612C63.5083 34.512 63.5443 34.4 63.5443 34.276C63.5443 34.132 63.4963 34.016 63.4003 33.928C63.3083 33.84 63.1863 33.77 63.0343 33.718C62.8863 33.662 62.7223 33.614 62.5423 33.574C62.3623 33.534 62.1803 33.488 61.9963 33.436C61.8163 33.38 61.6503 33.31 61.4983 33.226C61.3503 33.142 61.2303 33.03 61.1383 32.89C61.0463 32.746 61.0003 32.562 61.0003 32.338C61.0003 32.122 61.0563 31.924 61.1683 31.744C61.2843 31.56 61.4603 31.414 61.6963 31.306C61.9363 31.194 62.2403 31.138 62.6083 31.138C62.8523 31.138 63.0943 31.17 63.3343 31.234C63.5743 31.298 63.7823 31.39 63.9583 31.51L63.7603 31.99C63.5803 31.87 63.3903 31.784 63.1903 31.732C62.9903 31.676 62.7963 31.648 62.6083 31.648C62.3723 31.648 62.1783 31.678 62.0263 31.738C61.8743 31.798 61.7623 31.878 61.6903 31.978C61.6223 32.078 61.5883 32.19 61.5883 32.314C61.5883 32.462 61.6343 32.58 61.7263 32.668C61.8223 32.756 61.9443 32.826 62.0923 32.878C62.2443 32.93 62.4103 32.978 62.5903 33.022C62.7703 33.062 62.9503 33.108 63.1303 33.16C63.3143 33.212 63.4803 33.28 63.6283 33.364C63.7803 33.448 63.9023 33.56 63.9943 33.7C64.0863 33.84 64.1323 34.02 64.1323 34.24C64.1323 34.452 64.0743 34.65 63.9583 34.834C63.8423 35.014 63.6623 35.16 63.4183 35.272C63.1783 35.38 62.8743 35.434 62.5063 35.434Z" fill="#161616"/>
<path d="M68.6329 35.434C68.3129 35.434 68.0069 35.386 67.7149 35.29C67.4229 35.19 67.1929 35.062 67.0249 34.906L67.2469 34.438C67.4069 34.578 67.6109 34.694 67.8589 34.786C68.1069 34.878 68.3649 34.924 68.6329 34.924C68.8769 34.924 69.0749 34.896 69.2269 34.84C69.3789 34.784 69.4909 34.708 69.5629 34.612C69.6349 34.512 69.6709 34.4 69.6709 34.276C69.6709 34.132 69.6229 34.016 69.5269 33.928C69.4349 33.84 69.3129 33.77 69.1609 33.718C69.0129 33.662 68.8489 33.614 68.6689 33.574C68.4889 33.534 68.3069 33.488 68.1229 33.436C67.9429 33.38 67.7769 33.31 67.6249 33.226C67.4769 33.142 67.3569 33.03 67.2649 32.89C67.1729 32.746 67.1269 32.562 67.1269 32.338C67.1269 32.122 67.1829 31.924 67.2949 31.744C67.4109 31.56 67.5869 31.414 67.8229 31.306C68.0629 31.194 68.3669 31.138 68.7349 31.138C68.9789 31.138 69.2209 31.17 69.4609 31.234C69.7009 31.298 69.9089 31.39 70.0849 31.51L69.8869 31.99C69.7069 31.87 69.5169 31.784 69.3169 31.732C69.1169 31.676 68.9229 31.648 68.7349 31.648C68.4989 31.648 68.3049 31.678 68.1529 31.738C68.0009 31.798 67.8889 31.878 67.8169 31.978C67.7489 32.078 67.7149 32.19 67.7149 32.314C67.7149 32.462 67.7609 32.58 67.8529 32.668C67.9489 32.756 68.0709 32.826 68.2189 32.878C68.3709 32.93 68.5369 32.978 68.7169 33.022C68.8969 33.062 69.0769 33.108 69.2569 33.16C69.4409 33.212 69.6069 33.28 69.7549 33.364C69.9069 33.448 70.0289 33.56 70.1209 33.7C70.2129 33.84 70.2589 34.02 70.2589 34.24C70.2589 34.452 70.2009 34.65 70.0849 34.834C69.9689 35.014 69.7889 35.16 69.5449 35.272C69.3049 35.38 69.0009 35.434 68.6329 35.434Z" fill="#161616"/>
<path d="M78.0868 33.172H80.2528V33.688H78.0868V33.172ZM78.1468 35.386H77.5468V31.186H80.5108V31.708H78.1468V35.386Z" fill="#161616"/>
<path d="M83.7554 35.386V31.186H85.3934C85.7614 31.186 86.0754 31.244 86.3354 31.36C86.5954 31.476 86.7954 31.644 86.9354 31.864C87.0754 32.084 87.1454 32.346 87.1454 32.65C87.1454 32.954 87.0754 33.216 86.9354 33.436C86.7954 33.652 86.5954 33.818 86.3354 33.934C86.0754 34.05 85.7614 34.108 85.3934 34.108H84.0854L84.3554 33.832V35.386H83.7554ZM86.5634 35.386L85.4954 33.862H86.1374L87.2174 35.386H86.5634ZM84.3554 33.892L84.0854 33.598H85.3754C85.7594 33.598 86.0494 33.516 86.2454 33.352C86.4454 33.184 86.5454 32.95 86.5454 32.65C86.5454 32.35 86.4454 32.118 86.2454 31.954C86.0494 31.79 85.7594 31.708 85.3754 31.708H84.0854L84.3554 31.408V33.892Z" fill="#161616"/>
<path d="M89.8788 35.386L91.7808 31.186H92.3748L94.2828 35.386H93.6528L91.9548 31.522H92.1948L90.4968 35.386H89.8788ZM90.6888 34.336L90.8508 33.856H93.2148L93.3888 34.336H90.6888Z" fill="#161616"/>
<path d="M97.3093 35.386V31.186H97.8013L99.6853 34.36H99.4213L101.281 31.186H101.773L101.779 35.386H101.203L101.197 32.092H101.335L99.6793 34.876H99.4033L97.7353 32.092H97.8853V35.386H97.3093Z" fill="#161616"/>
<path d="M105.986 32.998H108.146V33.508H105.986V32.998ZM106.04 34.864H108.488V35.386H105.44V31.186H108.404V31.708H106.04V34.864Z" fill="#161616"/>
<path d="M112.767 35.386L111.363 31.186H111.981L113.271 35.062H112.959L114.297 31.186H114.849L116.157 35.062H115.857L117.165 31.186H117.735L116.331 35.386H115.701L114.477 31.792H114.639L113.409 35.386H112.767Z" fill="#161616"/>
<path d="M122.724 35.434C122.404 35.434 122.106 35.38 121.83 35.272C121.558 35.164 121.322 35.014 121.122 34.822C120.922 34.626 120.766 34.398 120.654 34.138C120.542 33.878 120.486 33.594 120.486 33.286C120.486 32.978 120.542 32.694 120.654 32.434C120.766 32.174 120.922 31.948 121.122 31.756C121.322 31.56 121.558 31.408 121.83 31.3C122.102 31.192 122.4 31.138 122.724 31.138C123.044 31.138 123.338 31.192 123.606 31.3C123.878 31.404 124.114 31.554 124.314 31.75C124.518 31.942 124.674 32.168 124.782 32.428C124.894 32.688 124.95 32.974 124.95 33.286C124.95 33.598 124.894 33.884 124.782 34.144C124.674 34.404 124.518 34.632 124.314 34.828C124.114 35.02 123.878 35.17 123.606 35.278C123.338 35.382 123.044 35.434 122.724 35.434ZM122.724 34.9C122.956 34.9 123.17 34.86 123.366 34.78C123.566 34.7 123.738 34.588 123.882 34.444C124.03 34.296 124.144 34.124 124.224 33.928C124.308 33.732 124.35 33.518 124.35 33.286C124.35 33.054 124.308 32.84 124.224 32.644C124.144 32.448 124.03 32.278 123.882 32.134C123.738 31.986 123.566 31.872 123.366 31.792C123.17 31.712 122.956 31.672 122.724 31.672C122.488 31.672 122.27 31.712 122.07 31.792C121.874 31.872 121.702 31.986 121.554 32.134C121.406 32.278 121.29 32.448 121.206 32.644C121.126 32.84 121.086 33.054 121.086 33.286C121.086 33.518 121.126 33.732 121.206 33.928C121.29 34.124 121.406 34.296 121.554 34.444C121.702 34.588 121.874 34.7 122.07 34.78C122.27 34.86 122.488 34.9 122.724 34.9Z" fill="#161616"/>
<path d="M128.267 35.386V31.186H129.905C130.273 31.186 130.587 31.244 130.847 31.36C131.107 31.476 131.307 31.644 131.447 31.864C131.587 32.084 131.657 32.346 131.657 32.65C131.657 32.954 131.587 33.216 131.447 33.436C131.307 33.652 131.107 33.818 130.847 33.934C130.587 34.05 130.273 34.108 129.905 34.108H128.597L128.867 33.832V35.386H128.267ZM131.075 35.386L130.007 33.862H130.649L131.729 35.386H131.075ZM128.867 33.892L128.597 33.598H129.887C130.271 33.598 130.561 33.516 130.757 33.352C130.957 33.184 131.057 32.95 131.057 32.65C131.057 32.35 130.957 32.118 130.757 31.954C130.561 31.79 130.271 31.708 129.887 31.708H128.597L128.867 31.408V33.892Z" fill="#161616"/>
<path d="M135.554 34.372L135.524 33.64L137.906 31.186H138.59L136.748 33.13L136.412 33.502L135.554 34.372ZM135.026 35.386V31.186H135.626V35.386H135.026ZM138.002 35.386L136.28 33.382L136.682 32.938L138.704 35.386H138.002Z" fill="#161616"/>
</svg>
